<svg width="80" height="80" viewBox="0 0 80 80" fill="none" xmlns="http://www.w3.org/2000/svg">
<rect width="80" height="80" rx="20" fill="white"/>
<g filter="url(#filter0_g_490_951)">
<path d="M24.1667 46.25C20.3751 46.25 17.9584 42.1875 19.7917 38.8542L24.6459 30.0208L29.1876 21.75C31.0834 18.3125 36.0417 18.3125 37.9375 21.75L42.5 30.0208L44.6875 34L47.3542 38.8542C49.1875 42.1875 46.7709 46.25 42.9792 46.25H24.1667Z" fill="#3481FF"/>
<path d="M47.2917 60.8333C39.8125 60.8333 33.75 54.7708 33.75 47.2917C33.75 46.9375 33.7708 46.6042 33.7917 46.25H42.9792C46.7708 46.25 49.1875 42.1875 47.3542 38.8542L44.6875 34C45.5208 33.8333 46.3958 33.75 47.2917 33.75C54.7708 33.75 60.8333 39.8125 60.8333 47.2917C60.8333 54.7708 54.7708 60.8333 47.2917 60.8333Z" fill="#A6C8FF"/>
</g>
<defs>
<filter id="filter0_g_490_951" x="14.5" y="14.5" width="51" height="51" filterUnits="userSpaceOnUse" color-interpolation-filters="sRGB">
<feFlood flood-opacity="0" result="BackgroundImageFix"/>
<feBlend mode="normal" in="SourceGraphic" in2="BackgroundImageFix" result="shape"/>
<feTurbulence type="fractalNoise" baseFrequency="0.5 0.5" numOctaves="3" seed="7535" />
<feDisplacementMap in="shape" scale="1" xChannelSelector="R" yChannelSelector="G" result="displacedImage" width="100%" height="100%" />
<feMerge result="effect1_texture_490_951">
<feMergeNode in="displacedImage"/>
</feMerge>
</filter>
</defs>
</svg>
