<svg width="35" height="35" viewBox="0 0 35 35" fill="none" xmlns="http://www.w3.org/2000/svg">
<path fill-rule="evenodd" clip-rule="evenodd" d="M2.91406 17.5005C2.91406 25.5505 9.4474 32.0838 17.4974 32.0838C25.5474 32.0838 32.0807 25.5505 32.0807 17.5005C32.0807 9.45045 25.5474 2.91711 17.4974 2.91711C9.4474 2.91711 2.91406 9.45045 2.91406 17.5005ZM18.9986 22.6482C18.7798 22.867 18.5028 22.9691 18.2257 22.9691C17.9486 22.9691 17.6715 22.867 17.4528 22.6482C17.0299 22.2253 17.0299 21.5253 17.4528 21.1024L19.9611 18.5941H12.3924C11.7944 18.5941 11.2986 18.0982 11.2986 17.5003C11.2986 16.9024 11.7944 16.4066 12.3924 16.4066H19.9611L17.4528 13.8982C17.0299 13.4753 17.0299 12.7753 17.4528 12.3524C17.8757 11.9295 18.5757 11.9295 18.9986 12.3524L23.3736 16.7274C23.7965 17.1503 23.7965 17.8503 23.3736 18.2732L18.9986 22.6482Z" fill="#ADCC00"/>
</svg>
