<svg width="26" height="26" viewBox="0 0 26 26" fill="none" xmlns="http://www.w3.org/2000/svg">
<path fill-rule="evenodd" clip-rule="evenodd" d="M2.16602 13.0003C2.16602 18.9803 7.01935 23.8337 12.9993 23.8337C18.9793 23.8337 23.8327 18.9803 23.8327 13.0003C23.8327 7.02033 18.9793 2.16699 12.9993 2.16699C7.01935 2.16699 2.16602 7.02033 2.16602 13.0003ZM14.1152 16.8245C13.9527 16.987 13.7468 17.0628 13.541 17.0628C13.3352 17.0628 13.1293 16.987 12.9669 16.8245C12.6527 16.5103 12.6527 15.9903 12.9669 15.6762L14.8302 13.8128H9.20768C8.76352 13.8128 8.39518 13.4445 8.39518 13.0003C8.39518 12.5562 8.76352 12.1878 9.20768 12.1878H14.8302L12.9669 10.3245C12.6527 10.0103 12.6527 9.49033 12.9669 9.17616C13.281 8.86199 13.801 8.86199 14.1152 9.17616L17.3652 12.4262C17.6794 12.7403 17.6794 13.2603 17.3652 13.5745L14.1152 16.8245Z" fill="#5E9BFF"/>
</svg>
