<svg width="1061" height="169" viewBox="0 0 1061 169" fill="none" xmlns="http://www.w3.org/2000/svg">
<g filter="url(#filter0_g_449_33)">
<rect x="1.5" y="1.5" width="872" height="166" rx="30" fill="black"/>
<rect x="4" y="4" width="867" height="161" rx="27.5" stroke="black" stroke-width="5"/>
<path d="M53.11 125.018V52.262C53.11 43.619 57.109 39.491 65.752 39.491H98.905C118.126 39.491 131.929 51.617 131.929 70.838C131.929 89.93 117.997 102.185 98.905 102.185H74.782V125.018C74.782 131.468 70.396 135.854 63.946 135.854C57.496 135.854 53.11 131.468 53.11 125.018ZM74.782 57.164V83.996H95.164C103.807 83.996 110.515 79.223 110.515 70.58C110.515 61.808 103.807 57.164 95.164 57.164H74.782ZM161.74 87.35C161.74 105.152 171.415 118.697 188.572 118.697C205.729 118.697 215.404 105.152 215.404 87.35C215.404 69.548 205.729 55.874 188.572 55.874C171.415 55.874 161.74 69.548 161.74 87.35ZM140.326 87.35C140.326 58.712 157.999 37.556 188.572 37.556C219.145 37.556 236.818 58.712 236.818 87.35C236.818 115.988 219.145 137.015 188.572 137.015C157.999 137.015 140.326 115.988 140.326 87.35ZM328.106 69.161C328.106 80.9 322.946 89.93 314.045 94.961L327.719 121.922C330.041 126.566 329.783 132.371 324.236 135.338C318.689 138.176 312.755 135.854 310.175 130.952L292.889 99.218H272.12V125.018C272.12 131.468 267.605 135.854 261.155 135.854C254.705 135.854 250.319 131.468 250.319 125.018V52.262C250.319 43.619 254.447 39.491 262.961 39.491H295.469C315.206 39.491 328.106 50.714 328.106 69.161ZM272.12 56.648V82.061H290.696C300.5 82.061 306.821 78.32 306.821 69.161C306.821 60.002 300.629 56.648 290.696 56.648H272.12ZM367.463 125.018V58.712H346.694C340.373 58.712 335.6 55.487 335.6 49.037C335.6 42.716 340.373 39.491 346.694 39.491H409.646C415.838 39.491 420.74 42.716 420.74 49.037C420.74 55.487 415.838 58.712 409.646 58.712H388.748V125.018C388.748 131.468 384.62 135.854 378.17 135.854C371.72 135.854 367.463 131.468 367.463 125.018ZM485.463 97.67H453.342V125.018C453.342 131.468 449.085 135.854 442.506 135.854C435.798 135.854 431.67 131.468 431.67 125.018V52.262C431.67 43.619 435.669 39.491 444.312 39.491H487.914C494.364 39.491 498.879 42.329 498.879 48.779C498.879 55.229 494.364 58.454 487.914 58.454H453.342V79.094H485.463C491.913 79.094 496.428 81.932 496.428 88.382C496.428 94.832 491.913 97.67 485.463 97.67ZM528.725 87.35C528.725 105.152 538.4 118.697 555.557 118.697C572.714 118.697 582.389 105.152 582.389 87.35C582.389 69.548 572.714 55.874 555.557 55.874C538.4 55.874 528.725 69.548 528.725 87.35ZM507.311 87.35C507.311 58.712 524.984 37.556 555.557 37.556C586.13 37.556 603.803 58.712 603.803 87.35C603.803 115.988 586.13 137.015 555.557 137.015C524.984 137.015 507.311 115.988 507.311 87.35ZM672.387 135.08H629.946C621.432 135.08 617.304 130.823 617.304 122.309V49.553C617.304 43.103 621.561 38.717 628.011 38.717C634.461 38.717 638.976 43.103 638.976 49.553V115.472H672.387C678.708 115.472 683.61 119.342 683.61 125.276C683.61 131.339 678.708 135.08 672.387 135.08ZM693.948 125.018V49.553C693.948 43.103 698.334 38.717 704.784 38.717C711.234 38.717 715.749 43.103 715.749 49.553V125.018C715.749 131.468 711.234 135.854 704.784 135.854C698.334 135.854 693.948 131.468 693.948 125.018ZM751.305 87.35C751.305 105.152 760.98 118.697 778.137 118.697C795.294 118.697 804.969 105.152 804.969 87.35C804.969 69.548 795.294 55.874 778.137 55.874C760.98 55.874 751.305 69.548 751.305 87.35ZM729.891 87.35C729.891 58.712 747.564 37.556 778.137 37.556C808.71 37.556 826.383 58.712 826.383 87.35C826.383 115.988 808.71 137.015 778.137 137.015C747.564 137.015 729.891 115.988 729.891 87.35Z" fill="white"/>
</g>
<g filter="url(#filter1_g_449_33)">
<rect x="893.5" y="1.5" width="166" height="166" rx="83" fill="#DAEF68"/>
<rect x="896" y="4" width="161" height="161" rx="80.5" stroke="black" stroke-width="5"/>
</g>
<g filter="url(#filter2_g_449_33)">
<path d="M985.08 38.8596C1005.8 38.8596 1022.28 54.4895 1022.28 73.4055C1022.28 84.6498 1016.49 94.6625 1007.47 100.986L1006.24 101.848L1006.43 103.339L1008.18 117.537V117.538C1008.38 119.24 1006.59 120.34 1005.21 119.507L1005.2 119.501L1005.19 119.496L986.357 108.302L985.767 107.95H985.08C984.568 107.95 984.06 107.941 983.555 107.924C985.631 104.331 986.815 100.211 986.815 95.8391C986.815 81.534 974.475 70.2308 959.589 70.2307C955.407 70.2307 951.446 71.1059 947.891 72.7083C948.289 54.1068 964.611 38.8596 985.08 38.8596Z" fill="white" stroke="black" stroke-width="5"/>
<path d="M959.485 69.7083C975.044 69.7083 987.28 81.2765 987.28 95.1458C987.28 100.972 985.1 106.382 981.387 110.69L981.363 110.719C976.401 116.654 968.465 120.53 959.485 120.53H958.807L958.222 120.873L943.845 129.298L943.829 129.307L943.814 129.316C943.508 129.501 943.161 129.491 942.842 129.285C942.558 129.103 942.413 128.841 942.407 128.558L942.414 128.435L943.788 117.75L943.983 116.233L942.721 115.368C935.953 110.733 931.69 103.374 931.69 95.1458C931.691 86.5238 936.352 78.8592 943.633 74.2688L943.652 74.2571C948.147 71.367 953.57 69.7083 959.485 69.7083Z" fill="#F2FFAB" stroke="black" stroke-width="5"/>
</g>
<defs>
<filter id="filter0_g_449_33" x="0" y="0" width="875" height="169" filterUnits="userSpaceOnUse" color-interpolation-filters="sRGB">
<feFlood flood-opacity="0" result="BackgroundImageFix"/>
<feBlend mode="normal" in="SourceGraphic" in2="BackgroundImageFix" result="shape"/>
<feTurbulence type="fractalNoise" baseFrequency="0.20000000298023224 0.20000000298023224" numOctaves="3" seed="4737" />
<feDisplacementMap in="shape" scale="3" xChannelSelector="R" yChannelSelector="G" result="displacedImage" width="100%" height="100%" />
<feMerge result="effect1_texture_449_33">
<feMergeNode in="displacedImage"/>
</feMerge>
</filter>
<filter id="filter1_g_449_33" x="892" y="0" width="169" height="169" filterUnits="userSpaceOnUse" color-interpolation-filters="sRGB">
<feFlood flood-opacity="0" result="BackgroundImageFix"/>
<feBlend mode="normal" in="SourceGraphic" in2="BackgroundImageFix" result="shape"/>
<feTurbulence type="fractalNoise" baseFrequency="0.25 0.25" numOctaves="3" seed="6929" />
<feDisplacementMap in="shape" scale="3" xChannelSelector="R" yChannelSelector="G" result="displacedImage" width="100%" height="100%" />
<feMerge result="effect1_texture_449_33">
<feMergeNode in="displacedImage"/>
</feMerge>
</filter>
<filter id="filter2_g_449_33" x="924.87" y="29.55" width="109.9" height="109.9" filterUnits="userSpaceOnUse" color-interpolation-filters="sRGB">
<feFlood flood-opacity="0" result="BackgroundImageFix"/>
<feBlend mode="normal" in="SourceGraphic" in2="BackgroundImageFix" result="shape"/>
<feTurbulence type="fractalNoise" baseFrequency="0.25 0.25" numOctaves="3" seed="8160" />
<feDisplacementMap in="shape" scale="2" xChannelSelector="R" yChannelSelector="G" result="displacedImage" width="100%" height="100%" />
<feMerge result="effect1_texture_449_33">
<feMergeNode in="displacedImage"/>
</feMerge>
</filter>
</defs>
</svg>
