<svg width="1143" height="169" viewBox="0 0 1143 169" fill="none" xmlns="http://www.w3.org/2000/svg">
<g filter="url(#filter0_g_449_61)">
<rect x="187.5" y="1.5" width="410" height="166" rx="30" fill="white"/>
<rect x="190" y="4" width="405" height="161" rx="27.5" stroke="black" stroke-width="5"/>
<path d="M268.522 116.633H295.741C301.804 116.633 306.964 119.729 306.964 125.792C306.964 131.855 301.804 135.08 295.741 135.08H243.238C238.981 135.08 235.627 132.758 235.627 128.243C235.627 124.373 237.82 122.051 240.4 119.342L260.911 97.283C269.425 87.995 279.745 78.449 279.745 67.613C279.745 60.647 273.811 55.874 266.845 55.874C261.427 55.874 256.783 57.809 253.171 61.421C248.785 65.807 243.367 68.129 238.852 64.775C234.724 61.679 234.853 56.132 238.336 51.23C244.915 41.942 256.267 37.556 268.522 37.556C287.614 37.556 301.03 48.134 301.03 67.097C301.03 77.675 294.58 87.221 287.098 95.735L268.522 116.633ZM351.36 118.697C364.131 118.697 366.582 103.604 366.582 87.35C366.582 71.096 364.131 55.874 351.36 55.874C338.589 55.874 336.138 71.096 336.138 87.35C336.138 103.604 338.589 118.697 351.36 118.697ZM351.36 137.015C323.883 137.015 314.853 114.956 314.853 87.35C314.853 59.744 323.883 37.556 351.36 37.556C378.837 37.556 387.867 59.744 387.867 87.35C387.867 114.956 378.837 137.015 351.36 137.015ZM431.102 116.633H458.321C464.384 116.633 469.544 119.729 469.544 125.792C469.544 131.855 464.384 135.08 458.321 135.08H405.818C401.561 135.08 398.207 132.758 398.207 128.243C398.207 124.373 400.4 122.051 402.98 119.342L423.491 97.283C432.005 87.995 442.325 78.449 442.325 67.613C442.325 60.647 436.391 55.874 429.425 55.874C424.007 55.874 419.363 57.809 415.751 61.421C411.365 65.807 405.947 68.129 401.432 64.775C397.304 61.679 397.433 56.132 400.916 51.23C407.495 41.942 418.847 37.556 431.102 37.556C450.194 37.556 463.61 48.134 463.61 67.097C463.61 77.675 457.16 87.221 449.678 95.735L431.102 116.633ZM524.647 50.972L510.457 72.386C513.037 71.354 516.133 71.225 519.1 71.225C537.418 71.225 550.447 85.157 550.447 103.475C550.447 123.341 535.483 137.015 514.843 137.015C492.913 137.015 477.304 123.341 477.304 103.475C477.304 91.994 481.432 82.19 486.85 73.805L506.974 42.2C510.457 37.04 515.746 34.46 521.164 37.298C526.582 40.136 527.485 45.425 524.647 50.972ZM497.557 104.12C497.557 113.408 504.652 119.987 513.94 119.987C523.228 119.987 530.323 113.408 530.323 104.12C530.323 94.832 523.228 88.253 513.94 88.253C504.652 88.253 497.557 94.832 497.557 104.12Z" fill="black"/>
</g>
<g filter="url(#filter1_g_449_61)">
<rect x="1.5" y="1.5" width="166" height="166" rx="10" fill="#5E9BFF"/>
<rect x="4" y="4" width="161" height="161" rx="7.5" stroke="black" stroke-width="5"/>
</g>
<g filter="url(#filter2_g_449_61)">
<path d="M1.5 11.5C1.5 5.97715 5.97715 1.5 11.5 1.5H157.5C163.023 1.5 167.5 5.97715 167.5 11.5V51.5H1.5V11.5Z" fill="#3481FF"/>
<path d="M11.5 4H157.5C161.642 4 165 7.35787 165 11.5V49H4V11.5C4 7.35786 7.35786 4 11.5 4Z" stroke="black" stroke-width="5"/>
</g>
<circle cx="21.4203" cy="26.3998" r="6.64" fill="white"/>
<circle cx="39.68" cy="26.4" r="6.64" fill="white"/>
<circle cx="57.94" cy="26.4" r="6.64" fill="white"/>
<g filter="url(#filter3_g_449_61)">
<path d="M56.4971 131.085C49.5298 127.554 43.5578 122.303 39.2145 115.784C35.5952 110.352 35.5952 103.381 39.2145 97.9483C43.5578 91.4295 49.5298 86.1783 56.4971 82.7378C59.8451 81.0176 63.9169 82.4662 65.6361 85.8161C67.3553 89.1661 65.9981 93.2403 62.5596 94.9605C57.6734 97.4051 53.5111 101.117 50.5251 105.644C49.9822 106.459 49.9822 107.545 50.5251 108.451C53.5111 112.978 57.6734 116.69 62.5596 119.134C65.9076 120.855 67.2648 124.929 65.6361 128.279C64.3693 130.452 61.9262 131.81 59.4831 131.81C58.4878 131.81 57.402 131.538 56.4971 131.085Z" fill="white"/>
<path d="M103.976 128.108C102.257 124.768 103.614 120.705 107.053 118.99C111.939 116.552 116.101 112.85 119.087 108.336C119.63 107.524 119.63 106.44 119.087 105.538C116.101 101.024 111.939 97.322 107.053 94.8843C103.705 93.169 102.348 89.1063 103.976 85.7658C105.696 82.4254 109.767 81.0712 113.115 82.6962C120.083 86.2172 126.055 91.4536 130.398 97.9539C134.017 103.371 134.017 110.323 130.398 115.74C126.055 122.24 120.083 127.476 113.115 130.907C112.029 131.539 111.034 131.81 110.039 131.81C107.505 131.81 105.153 130.456 103.976 128.108Z" fill="white"/>
</g>
<path d="M628.891 51.1562C628.873 54.5312 630.402 57.8359 634.48 59.5586V46.1992H639.156V53.2656H641.336V45.6367H646.152V65.3242H641.336V57.3438H639.156V64.3047H634.48V60.0684L632.09 63.5312C629.453 62.5293 627.643 60.7363 626.5 58.5039C625.34 61.1758 623.389 63.373 620.453 64.5859L617.746 60.6836C622.369 58.6621 623.934 54.7422 623.934 51.1562V47.5703H628.891V51.1562ZM623.758 71.7578C623.74 67.9609 628.152 65.6582 635.008 65.6406C641.863 65.6582 646.293 67.9609 646.328 71.7578C646.293 75.5547 641.863 77.9102 635.008 77.875C628.152 77.9102 623.74 75.5547 623.758 71.7578ZM628.82 71.7578C628.803 73.3574 631.018 74.0957 635.008 74.0781C638.98 74.0957 641.195 73.3574 641.23 71.7578C641.195 70.1758 638.98 69.4023 635.008 69.4375C631.018 69.4023 628.803 70.1758 628.82 71.7578ZM674.076 45.6016V52.9492H678.26V57.1328H674.076V64.2695H669.014V45.6016H674.076ZM647.779 60.4727C654.916 58.75 658.713 55.3223 659.434 51.332H649.537V47.3594H664.936C664.918 56.0957 659.609 61.9316 649.889 64.3398L647.779 60.4727ZM652.174 69.543V65.5352H674.076V77.875H669.014V69.543H652.174ZM704.11 45.6367V55.3047H708.293V59.418H704.11V69.7188H699.047V45.6367H704.11ZM678.375 52.8086V48.8711H685.406V45.6016H690.469V48.8711H697.5V52.8086H678.375ZM679.887 60.0508C679.869 56.2891 683.227 53.7402 687.938 53.7227C692.631 53.7402 695.936 56.2891 695.953 60.0508C695.936 63.7949 692.631 66.291 687.938 66.2734C683.227 66.291 679.869 63.7949 679.887 60.0508ZM682.945 77.3477V67.8555H688.008V73.3047H705.164V77.3477H682.945ZM684.809 60.0508C684.809 61.668 686.057 62.459 687.938 62.4766C689.836 62.459 691.119 61.668 691.137 60.0508C691.119 58.4336 689.836 57.5898 687.938 57.5898C686.057 57.5898 684.809 58.4336 684.809 60.0508ZM743.399 45.6016V77.875H738.618V61.9141H736.016V76.3281H731.41V46.0938H736.016V57.9062H738.618V45.6016H743.399ZM716.223 70.7734V49.293H728.246V53.3359H721.321V66.5371C724.098 66.502 726.717 66.3262 729.653 65.8164L730.004 69.8945C726.049 70.6504 722.569 70.7559 718.543 70.7734H716.223ZM774.944 70.2812V74.3945H745.448V70.2812H757.647V65.7812H748.752V54.6719H766.647V51.6484H748.717V47.6055H771.639V58.6094H753.815V61.7031H772.377V65.7812H762.639V70.2812H774.944ZM811.948 70.1406V74.2539H782.452V70.1406H794.651V64.4805H785.475V47.6055H790.538V52.3516H803.721V47.6055H808.784V64.4805H799.643V70.1406H811.948ZM790.538 60.4727H803.721V56.3242H790.538V60.4727ZM839.59 45.6016V77.9453H834.493V45.6016H839.59ZM813.329 59.3477C813.329 52.2812 817.003 47.7988 821.977 47.8164C826.881 47.7988 830.538 52.2812 830.555 59.3477C830.538 66.5195 826.881 70.9844 821.977 70.9844C817.003 70.9844 813.329 66.5195 813.329 59.3477ZM818.251 59.3477C818.215 64.041 819.71 66.3789 821.977 66.3789C824.174 66.3789 825.651 64.041 825.669 59.3477C825.651 54.7422 824.174 52.3691 821.977 52.3867C819.71 52.3691 818.215 54.7422 818.251 59.3477ZM869.307 48.2383V51.2617C869.307 55.3223 869.307 59.8926 868.007 66.8711L862.874 66.3438C864.104 60.4199 864.192 55.9551 864.245 52.2461H845.542V48.2383H869.307ZM842.518 74.1133V70.0352H852.749V59.0664H857.776V70.0352H871.944V74.1133H842.518ZM879.829 71.8281L876.7 81.9883H872.587L874.274 71.8281H879.829ZM904.106 48.2031V63.8828H888.462V48.2031H904.106ZM892.153 77.3477V66.7656H897.216V73.3047H914.372V77.3477H892.153ZM893.454 59.9453H899.114V52.2109H893.454V59.9453ZM908.255 69.1211V45.6367H913.317V54.7422H917.501V58.8906H913.317V69.1211H908.255ZM947.147 61.4219V65.4297H917.651V61.4219H947.147ZM921.132 77.3125V67.6445H926.089V73.2695H944.089V77.3125H921.132ZM921.167 59.1016V46.7266H943.667V50.7344H926.23V55.0586H943.983V59.1016H921.167ZM982.64 45.6016V77.875H977.859V61.9141H975.257V76.3281H970.652V46.0938H975.257V57.9062H977.859V45.6016H982.64ZM955.464 70.7734V49.293H967.487V53.3359H960.562V66.5371C963.339 66.502 965.958 66.3262 968.894 65.8164L969.245 69.8945C965.29 70.6504 961.81 70.7559 957.784 70.7734H955.464ZM1014.18 70.2812V74.3945H984.689V70.2812H996.888V65.7812H987.993V54.6719H1005.89V51.6484H987.958V47.6055H1010.88V58.6094H993.056V61.7031H1011.62V65.7812H1001.88V70.2812H1014.18ZM1036.39 45.9883C1043.61 46.0059 1048.22 48.3789 1048.24 52.3164C1048.22 56.1836 1043.61 58.5039 1036.39 58.5039C1029.22 58.5039 1024.52 56.1836 1024.54 52.3164C1024.52 48.3789 1029.22 46.0059 1036.39 45.9883ZM1021.69 63.918V59.9102H1051.12V63.918H1038.88V66.4141H1047.6V77.5234H1025.07V66.4141H1033.82V63.918H1021.69ZM1029.81 52.3164C1029.78 53.916 1032.12 54.6719 1036.39 54.6719C1040.62 54.6719 1043 53.916 1043 52.3164C1043 50.6289 1040.62 49.8379 1036.39 49.8555C1032.12 49.8379 1029.78 50.6289 1029.81 52.3164ZM1030.02 73.4805H1042.68V70.3867H1030.02V73.4805ZM1078.83 45.6016V65.0078H1073.77V45.6016H1078.83ZM1051.76 60.6836C1057.02 59.0312 1059.23 55.1289 1059.44 51.4023H1053.1V47.3594H1070.78V51.4023H1064.61C1064.82 54.9004 1066.95 58.5566 1072.12 60.1211L1069.52 64.0234C1065.98 62.9512 1063.56 60.7363 1062.11 57.9766C1060.64 61 1058.11 63.3906 1054.36 64.5859L1051.76 60.6836ZM1056.54 70.3516V66.3438H1078.83V77.875H1073.77V70.3516H1056.54ZM1108.86 45.6016V77.9453H1103.77V45.6016H1108.86ZM1082.6 59.3477C1082.6 52.2812 1086.28 47.7988 1091.25 47.8164C1096.16 47.7988 1099.81 52.2812 1099.83 59.3477C1099.81 66.5195 1096.16 70.9844 1091.25 70.9844C1086.28 70.9844 1082.6 66.5195 1082.6 59.3477ZM1087.52 59.3477C1087.49 64.041 1088.98 66.3789 1091.25 66.3789C1093.45 66.3789 1094.93 64.041 1094.94 59.3477C1094.93 54.7422 1093.45 52.3691 1091.25 52.3867C1088.98 52.3691 1087.49 54.7422 1087.52 59.3477ZM1139.85 45.6016V77.875H1135.1V45.6016H1139.85ZM1111.27 67.6797C1117.63 63.918 1120.3 59.5586 1120.93 53.4062H1113.16V49.3633H1125.93C1125.93 52.3867 1125.64 55.1992 1124.96 57.8008H1128.25V46.3047H1132.96V76.5039H1128.25V61.8086H1123.46C1121.65 65.4648 1118.7 68.5938 1114.11 71.2305L1111.27 67.6797ZM644.852 101.445V105.488H621.93V93.0078H626.992V101.445H644.852ZM618.344 112.871V108.758H647.84V112.871H635.465V123.875H630.367V112.871H618.344ZM674.498 93.4297V96.3477C674.481 99.3535 674.481 102.623 673.69 107.105H677.803V111.184H665.463V123.91H660.365V111.184H648.377V107.105H668.592C669.33 103.15 669.418 100.109 669.436 97.4375H651.647V93.4297H674.498ZM708.328 103.625V107.738H704.004V123.77H698.942V91.6016H704.004V103.625H708.328ZM679.324 116V94.6602H684.387V111.834C688.324 111.746 692.596 111.359 697.043 110.48L697.57 114.664C692.209 115.754 686.918 116.018 682.207 116H679.324ZM741.008 91.6016V103.484H745.578V107.668H741.008V123.875H735.946V91.6016H741.008ZM716.328 116.492V94.1328H721.391V101.762H727.227V94.1328H732.254V116.492H716.328ZM721.391 112.379H727.227V105.664H721.391V112.379ZM774.944 116.281V120.395H745.448V116.281H757.647V111.781H748.752V100.672H766.647V97.6484H748.717V93.6055H771.639V104.609H753.815V107.703H772.377V111.781H762.639V116.281H774.944ZM809.557 91.6016V123.945H804.46V91.6016H809.557ZM783.295 105.348C783.295 98.2812 786.969 93.7988 791.944 93.8164C796.848 93.7988 800.504 98.2812 800.522 105.348C800.504 112.52 796.848 116.984 791.944 116.984C786.969 116.984 783.295 112.52 783.295 105.348ZM788.217 105.348C788.182 110.041 789.676 112.379 791.944 112.379C794.141 112.379 795.618 110.041 795.635 105.348C795.618 100.742 794.141 98.3691 791.944 98.3867C789.676 98.3691 788.182 100.742 788.217 105.348ZM827.848 96.3125V100.32H812.45V96.3125H817.723V92.4805H822.715V96.3125H827.848ZM813.083 109.285C813.065 104.75 816.106 101.551 820.255 101.551C824.385 101.551 827.339 104.75 827.356 109.285C827.339 113.855 824.385 117.09 820.255 117.09C816.106 117.09 813.065 113.855 813.083 109.285ZM817.512 109.285C817.512 111.623 818.602 112.818 820.255 112.801C821.819 112.818 822.909 111.623 822.926 109.285C822.909 107 821.819 105.717 820.255 105.734C818.602 105.717 817.512 107 817.512 109.285ZM828.903 122.539V92.1992H833.614V104.574H835.688V91.6016H840.505V123.875H835.688V108.617H833.614V122.539H828.903ZM868.112 91.6016V104.012H872.682V108.195H868.112V123.875H863.12V91.6016H868.112ZM842.342 100.32V96.3125H849.339V92.1289H854.401V96.3125H861.221V100.32H842.342ZM843.503 109.637C843.467 105.084 847.036 101.85 851.87 101.867C856.581 101.85 860.184 105.084 860.202 109.637C860.184 114.189 856.581 117.406 851.87 117.406C847.036 117.406 843.467 114.189 843.503 109.637ZM848.354 109.637C848.319 112.01 849.796 113.311 851.87 113.293C853.874 113.311 855.333 112.01 855.35 109.637C855.333 107.316 853.874 105.963 851.87 105.945C849.796 105.963 848.319 107.316 848.354 109.637ZM900.606 91.6016V123.875H895.86V91.6016H900.606ZM872.024 113.68C878.387 109.918 881.059 105.559 881.692 99.4062H873.923V95.3633H886.684C886.684 98.3867 886.403 101.199 885.718 103.801H889.005V92.3047H893.716V122.504H889.005V107.809H884.223C882.413 111.465 879.46 114.594 874.872 117.23L872.024 113.68Z" fill="black"/>
<defs>
<filter id="filter0_g_449_61" x="186" y="0" width="413" height="169" filterUnits="userSpaceOnUse" color-interpolation-filters="sRGB">
<feFlood flood-opacity="0" result="BackgroundImageFix"/>
<feBlend mode="normal" in="SourceGraphic" in2="BackgroundImageFix" result="shape"/>
<feTurbulence type="fractalNoise" baseFrequency="0.20000000298023224 0.20000000298023224" numOctaves="3" seed="4737" />
<feDisplacementMap in="shape" scale="3" xChannelSelector="R" yChannelSelector="G" result="displacedImage" width="100%" height="100%" />
<feMerge result="effect1_texture_449_61">
<feMergeNode in="displacedImage"/>
</feMerge>
</filter>
<filter id="filter1_g_449_61" x="0" y="0" width="169" height="169" filterUnits="userSpaceOnUse" color-interpolation-filters="sRGB">
<feFlood flood-opacity="0" result="BackgroundImageFix"/>
<feBlend mode="normal" in="SourceGraphic" in2="BackgroundImageFix" result="shape"/>
<feTurbulence type="fractalNoise" baseFrequency="0.20000000298023224 0.20000000298023224" numOctaves="3" seed="5059" />
<feDisplacementMap in="shape" scale="3" xChannelSelector="R" yChannelSelector="G" result="displacedImage" width="100%" height="100%" />
<feMerge result="effect1_texture_449_61">
<feMergeNode in="displacedImage"/>
</feMerge>
</filter>
<filter id="filter2_g_449_61" x="0" y="0" width="169" height="53" filterUnits="userSpaceOnUse" color-interpolation-filters="sRGB">
<feFlood flood-opacity="0" result="BackgroundImageFix"/>
<feBlend mode="normal" in="SourceGraphic" in2="BackgroundImageFix" result="shape"/>
<feTurbulence type="fractalNoise" baseFrequency="0.20000000298023224 0.20000000298023224" numOctaves="3" seed="5059" />
<feDisplacementMap in="shape" scale="3" xChannelSelector="R" yChannelSelector="G" result="displacedImage" width="100%" height="100%" />
<feMerge result="effect1_texture_449_61">
<feMergeNode in="displacedImage"/>
</feMerge>
</filter>
<filter id="filter3_g_449_61" x="35.5" y="81.0098" width="98.6123" height="51.8" filterUnits="userSpaceOnUse" color-interpolation-filters="sRGB">
<feFlood flood-opacity="0" result="BackgroundImageFix"/>
<feBlend mode="normal" in="SourceGraphic" in2="BackgroundImageFix" result="shape"/>
<feTurbulence type="fractalNoise" baseFrequency="0.25 0.25" numOctaves="3" seed="8306" />
<feDisplacementMap in="shape" scale="2" xChannelSelector="R" yChannelSelector="G" result="displacedImage" width="100%" height="100%" />
<feMerge result="effect1_texture_449_61">
<feMergeNode in="displacedImage"/>
</feMerge>
</filter>
</defs>
</svg>
