<svg width="901" height="172" viewBox="0 0 901 172" fill="none" xmlns="http://www.w3.org/2000/svg">
<g filter="url(#filter0_g_449_43)">
<rect x="187.5" y="1.5" width="609" height="166" rx="30" fill="white"/>
<rect x="190" y="4" width="604" height="161" rx="27.5" stroke="black" stroke-width="5"/>
<path d="M288.13 108.764L306.835 49.553C309.415 41.426 314.704 38.717 322.831 38.717C332.377 38.717 337.537 43.361 337.537 53.036V125.534C337.537 131.597 333.925 135.854 327.862 135.854C321.799 135.854 318.187 131.597 318.187 125.534V70.58H317.929L298.192 128.243C296.773 132.758 292.903 135.209 288.001 135.209C283.099 135.209 279.229 132.758 277.81 128.243L258.073 70.58H257.815V125.534C257.815 131.597 254.203 135.854 248.14 135.854C242.077 135.854 238.465 131.597 238.465 125.534V53.036C238.465 43.361 243.625 38.717 253.171 38.717C261.298 38.717 266.587 41.426 269.167 49.553L287.872 108.764H288.13ZM356.303 125.018V49.553C356.303 43.103 360.689 38.717 367.139 38.717C373.589 38.717 378.104 43.103 378.104 49.553V125.018C378.104 131.468 373.589 135.854 367.139 135.854C360.689 135.854 356.303 131.468 356.303 125.018ZM396.762 124.76V53.81C396.762 44.135 400.503 38.717 410.178 38.717C416.628 38.717 420.369 40.781 423.207 45.425L456.618 104.12H457.005V49.811C457.005 43.361 461.133 38.717 467.583 38.717C474.033 38.717 478.161 43.361 478.161 49.811V121.277C478.161 130.565 474.936 135.854 465.648 135.854C459.198 135.854 454.554 133.79 451.458 128.888L418.305 73.031H417.918V124.76C417.918 131.339 413.79 135.854 407.34 135.854C400.89 135.854 396.762 131.21 396.762 124.76ZM496.193 125.018V49.553C496.193 43.103 500.579 38.717 507.029 38.717C513.608 38.717 517.865 43.103 517.865 49.553V76.256H555.275V49.553C555.275 43.103 559.661 38.717 566.111 38.717C572.69 38.717 576.947 43.103 576.947 49.553V125.018C576.947 131.468 572.561 135.854 566.111 135.854C559.661 135.854 555.275 131.468 555.275 125.018V94.832H517.865V125.018C517.865 131.468 513.479 135.854 506.9 135.854C500.45 135.854 496.193 131.468 496.193 125.018ZM654.334 135.08H607.636C599.122 135.08 594.994 130.823 594.994 122.309V52.262C594.994 43.748 599.122 39.491 607.636 39.491H652.786C659.236 39.491 663.751 41.684 663.751 48.134C663.751 54.584 659.236 56.777 652.786 56.777H616.795V77.417H650.464C656.527 77.417 660.784 79.997 660.784 86.06C660.784 92.123 656.527 94.703 650.464 94.703H616.795V117.794H654.334C660.784 117.794 665.299 119.858 665.299 126.308C665.299 132.758 660.784 135.08 654.334 135.08ZM738.143 135.08H691.445C682.931 135.08 678.803 130.823 678.803 122.309V52.262C678.803 43.748 682.931 39.491 691.445 39.491H736.595C743.045 39.491 747.56 41.684 747.56 48.134C747.56 54.584 743.045 56.777 736.595 56.777H700.604V77.417H734.273C740.336 77.417 744.593 79.997 744.593 86.06C744.593 92.123 740.336 94.703 734.273 94.703H700.604V117.794H738.143C744.593 117.794 749.108 119.858 749.108 126.308C749.108 132.758 744.593 135.08 738.143 135.08Z" fill="black"/>
</g>
<g filter="url(#filter1_g_449_43)">
<rect x="1.5" y="1.5" width="166" height="166" rx="30" fill="#FF8E59"/>
<rect x="4" y="4" width="161" height="161" rx="27.5" stroke="black" stroke-width="5"/>
</g>
<g filter="url(#filter2_g_449_43)">
<path d="M73.0413 112H50.1247C47.6038 112 45.3122 110.992 43.6622 109.296C41.9663 107.646 40.958 105.354 40.958 102.834C40.958 98.1127 44.6247 94.171 49.2538 93.7127C49.5288 93.6669 49.8038 93.6669 50.1247 93.6669H118.875C119.196 93.6669 119.471 93.6669 119.746 93.7127C121.946 93.896 123.871 94.8585 125.337 96.371C127.216 98.2044 128.225 100.817 127.996 103.659C127.583 108.471 123.229 112 118.371 112H95.958V118.875C95.958 125.2 90.8247 130.334 84.4997 130.334C78.1747 130.334 73.0413 125.2 73.0413 118.875V112Z" fill="black"/>
<path d="M60.7129 41.167H108.288C114.923 41.1672 120.134 46.9033 119.459 53.5391L119.453 53.5967L119.45 53.6543L117.383 91.167H51.6182L49.5508 53.6543L49.5479 53.5967L49.542 53.5391L49.5146 53.2285C49.0304 46.7253 54.1813 41.167 60.7129 41.167Z" fill="white" stroke="black" stroke-width="5"/>
<path d="M69.5596 61.5837C69.5596 63.4628 68.0012 65.0212 66.1221 65.0212C64.2429 65.0212 62.6846 63.4628 62.6846 61.5837V38.667H69.5596V61.5837Z" fill="black"/>
<path d="M87.9375 47.8335C87.9375 49.7127 86.3792 51.271 84.5 51.271C82.6208 51.271 81.0625 49.7127 81.0625 47.8335V38.6669H87.9375V47.8335Z" fill="black"/>
</g>
<g filter="url(#filter3_g_449_43)">
<path d="M780.435 71.4319L800.435 51.4319L790.501 41.4986C787.701 38.6986 784.101 37.3652 780.501 37.3652C776.901 37.3652 773.301 38.6986 770.501 41.4986C764.968 47.0319 764.968 55.9652 770.501 61.4986L780.435 71.4319Z" fill="black"/>
<path d="M783.973 71.4346L858.938 146.4C863.495 150.957 870.845 150.957 875.402 146.4C879.959 141.843 879.959 134.493 875.402 129.936L800.438 54.9697L783.973 71.4346Z" fill="#FFBDF9" stroke="black" stroke-width="5"/>
<path d="M831.43 25.5668C831.163 24.7001 831.43 23.7668 832.03 23.1001C832.63 22.4334 833.696 22.1668 834.563 22.4334L843.83 25.1668L853.096 22.4334C853.963 22.1668 854.896 22.4334 855.563 23.0334C856.23 23.7001 856.43 24.6334 856.163 25.5001L853.496 34.8334L856.23 44.1001C856.496 44.9668 856.23 45.9001 855.63 46.5668C854.963 47.2334 854.03 47.4334 853.163 47.1668L843.83 44.5001L834.563 47.2334C834.296 47.3001 834.096 47.3668 833.83 47.3668C833.163 47.3668 832.563 47.1001 832.03 46.6334C831.363 45.9668 831.163 45.0334 831.43 44.1668L834.163 34.8334L831.43 25.5668Z" fill="#8F9AFF"/>
<path d="M858.097 65.5665C857.83 64.6999 858.097 63.7665 858.697 63.0999C859.363 62.4332 860.297 62.2332 861.163 62.4999L870.497 65.1665L879.763 62.4332C880.63 62.1665 881.563 62.4332 882.23 63.0332C882.897 63.6999 883.097 64.6332 882.83 65.4999L880.163 74.8332L882.897 84.0999C883.163 84.9665 882.897 85.8999 882.297 86.5665C881.63 87.2332 880.697 87.4332 879.83 87.1665L870.563 84.4332L861.297 87.1665C861.097 87.2332 860.83 87.2332 860.563 87.2332C859.897 87.2332 859.297 86.9665 858.763 86.4999C858.097 85.8332 857.897 84.8999 858.163 84.0332L860.83 74.8332L858.097 65.5665Z" fill="#8F9AFF"/>
<path d="M761.658 108.677C761.391 107.81 761.658 106.877 762.258 106.21C762.924 105.544 763.858 105.344 764.724 105.61L773.991 108.344L783.258 105.61C784.124 105.344 785.058 105.61 785.724 106.21C786.391 106.877 786.591 107.81 786.324 108.677L783.591 117.944L786.324 127.21C786.591 128.077 786.324 129.01 785.724 129.677C785.058 130.344 784.124 130.544 783.258 130.277L773.991 127.544L764.724 130.277C764.524 130.344 764.258 130.344 763.991 130.344C763.324 130.344 762.724 130.077 762.191 129.61C761.524 128.944 761.324 128.01 761.591 127.144L764.391 117.944L761.658 108.677Z" fill="#8F9AFF"/>
</g>
<defs>
<filter id="filter0_g_449_43" x="186" y="0" width="612" height="169" filterUnits="userSpaceOnUse" color-interpolation-filters="sRGB">
<feFlood flood-opacity="0" result="BackgroundImageFix"/>
<feBlend mode="normal" in="SourceGraphic" in2="BackgroundImageFix" result="shape"/>
<feTurbulence type="fractalNoise" baseFrequency="0.20000000298023224 0.20000000298023224" numOctaves="3" seed="4737" />
<feDisplacementMap in="shape" scale="3" xChannelSelector="R" yChannelSelector="G" result="displacedImage" width="100%" height="100%" />
<feMerge result="effect1_texture_449_43">
<feMergeNode in="displacedImage"/>
</feMerge>
</filter>
<filter id="filter1_g_449_43" x="0" y="0" width="169" height="169" filterUnits="userSpaceOnUse" color-interpolation-filters="sRGB">
<feFlood flood-opacity="0" result="BackgroundImageFix"/>
<feBlend mode="normal" in="SourceGraphic" in2="BackgroundImageFix" result="shape"/>
<feTurbulence type="fractalNoise" baseFrequency="0.25 0.25" numOctaves="3" seed="4737" />
<feDisplacementMap in="shape" scale="3" xChannelSelector="R" yChannelSelector="G" result="displacedImage" width="100%" height="100%" />
<feMerge result="effect1_texture_449_43">
<feMergeNode in="displacedImage"/>
</feMerge>
</filter>
<filter id="filter2_g_449_43" x="28.5" y="28.5" width="112" height="112" filterUnits="userSpaceOnUse" color-interpolation-filters="sRGB">
<feFlood flood-opacity="0" result="BackgroundImageFix"/>
<feBlend mode="normal" in="SourceGraphic" in2="BackgroundImageFix" result="shape"/>
<feTurbulence type="fractalNoise" baseFrequency="0.25 0.25" numOctaves="3" seed="269" />
<feDisplacementMap in="shape" scale="2" xChannelSelector="R" yChannelSelector="G" result="displacedImage" width="100%" height="100%" />
<feMerge result="effect1_texture_449_43">
<feMergeNode in="displacedImage"/>
</feMerge>
</filter>
<filter id="filter3_g_449_43" x="739.5" y="10.5" width="162" height="162" filterUnits="userSpaceOnUse" color-interpolation-filters="sRGB">
<feFlood flood-opacity="0" result="BackgroundImageFix"/>
<feBlend mode="normal" in="SourceGraphic" in2="BackgroundImageFix" result="shape"/>
<feTurbulence type="fractalNoise" baseFrequency="0.25 0.25" numOctaves="3" seed="1562" />
<feDisplacementMap in="shape" scale="2" xChannelSelector="R" yChannelSelector="G" result="displacedImage" width="100%" height="100%" />
<feMerge result="effect1_texture_449_43">
<feMergeNode in="displacedImage"/>
</feMerge>
</filter>
</defs>
</svg>
