<svg width="125" height="42" viewBox="0 0 125 42" fill="none" xmlns="http://www.w3.org/2000/svg">
<g filter="url(#filter0_g_421_1232)">
<circle cx="21" cy="21" r="20" fill="#DAEF68"/>
</g>
<g filter="url(#filter1_g_421_1232)">
<rect x="45" y="3.5" width="35" height="35" rx="5" fill="#5E9BFF"/>
</g>
<g filter="url(#filter2_g_421_1232)">
<path d="M122.536 19.5355C123.473 20.4732 124.006 21.7398 123.843 23.0558C123.21 28.1596 120.025 41 104 41C87.9748 41 84.7899 28.1596 84.157 23.0558C83.9938 21.7398 84.5268 20.4732 85.4645 19.5355L100.464 4.53553C102.417 2.58291 105.583 2.58291 107.536 4.53553L122.536 19.5355Z" fill="#FF8E59"/>
</g>
<defs>
<filter id="filter0_g_421_1232" x="0" y="0" width="42" height="42" filterUnits="userSpaceOnUse" color-interpolation-filters="sRGB">
<feFlood flood-opacity="0" result="BackgroundImageFix"/>
<feBlend mode="normal" in="SourceGraphic" in2="BackgroundImageFix" result="shape"/>
<feTurbulence type="fractalNoise" baseFrequency="0.25 0.25" numOctaves="3" seed="9298" />
<feDisplacementMap in="shape" scale="2" xChannelSelector="R" yChannelSelector="G" result="displacedImage" width="100%" height="100%" />
<feMerge result="effect1_texture_421_1232">
<feMergeNode in="displacedImage"/>
</feMerge>
</filter>
<filter id="filter1_g_421_1232" x="44" y="2.5" width="37" height="37" filterUnits="userSpaceOnUse" color-interpolation-filters="sRGB">
<feFlood flood-opacity="0" result="BackgroundImageFix"/>
<feBlend mode="normal" in="SourceGraphic" in2="BackgroundImageFix" result="shape"/>
<feTurbulence type="fractalNoise" baseFrequency="0.25 0.25" numOctaves="3" seed="9298" />
<feDisplacementMap in="shape" scale="2" xChannelSelector="R" yChannelSelector="G" result="displacedImage" width="100%" height="100%" />
<feMerge result="effect1_texture_421_1232">
<feMergeNode in="displacedImage"/>
</feMerge>
</filter>
<filter id="filter2_g_421_1232" x="83.1278" y="2.07107" width="41.7444" height="39.9289" filterUnits="userSpaceOnUse" color-interpolation-filters="sRGB">
<feFlood flood-opacity="0" result="BackgroundImageFix"/>
<feBlend mode="normal" in="SourceGraphic" in2="BackgroundImageFix" result="shape"/>
<feTurbulence type="fractalNoise" baseFrequency="0.25 0.25" numOctaves="3" seed="8718" />
<feDisplacementMap in="shape" scale="2" xChannelSelector="R" yChannelSelector="G" result="displacedImage" width="100%" height="100%" />
<feMerge result="effect1_texture_421_1232">
<feMergeNode in="displacedImage"/>
</feMerge>
</filter>
</defs>
</svg>
